<svg width="24" height="24" viewBox="0 0 24 24" fill="none" xmlns="http://www.w3.org/2000/svg">
<path fill-rule="evenodd" clip-rule="evenodd" d="M16.1503 7.20511C15.5124 6.69273 14.7877 6.28309 14 6.00011C14.7877 5.71712 15.5124 5.30748 16.1503 4.79511C16.5722 4.45615 16.9561 4.07222 17.2951 3.65027C17.8075 3.01244 18.2171 2.28771 18.5001 1.5C18.7831 2.28771 19.1927 3.01244 19.7051 3.65027C20.0441 4.07222 20.428 4.45615 20.8499 4.79511C21.4878 5.30748 22.2125 5.71712 23.0002 6.00011C22.2125 6.28309 21.4878 6.69273 20.8499 7.20511C20.428 7.54407 20.0441 7.92799 19.7051 8.34994C19.1927 8.98777 18.7831 9.7125 18.5001 10.5002C18.2171 9.7125 17.8075 8.98777 17.2951 8.34994C16.9561 7.92799 16.5722 7.54407 16.1503 7.20511ZM18.5001 6.68162C18.2847 6.44303 18.0572 6.21556 17.8186 6.00011C18.0572 5.78465 18.2847 5.55718 18.5001 5.31859C18.7156 5.55718 18.943 5.78465 19.1816 6.00011C18.943 6.21556 18.7156 6.44303 18.5001 6.68162ZM16.0434 12.938L19.0012 14.0006L16.0434 15.0632L15.9286 15.1044C13.6811 15.9118 11.9118 17.6811 11.1044 19.9286L11.0632 20.0434L10.0006 23.0012L8.93802 20.0434L8.89678 19.9286C8.08937 17.6811 6.3201 15.9118 4.0726 15.1044L3.95779 15.0632L1 14.0006L3.95778 12.938L4.0726 12.8968C6.3201 12.0894 8.08937 10.3201 8.89678 8.0726L8.93802 7.95779L10.0006 5L11.0632 7.95779L11.1044 8.0726C11.9118 10.3201 13.6811 12.0894 15.9286 12.8968L16.0434 12.938ZM10.0006 10.4154C10.8676 11.8982 12.103 13.1336 13.5858 14.0006C12.103 14.8676 10.8676 16.103 10.0006 17.5858C9.1336 16.103 7.89822 14.8676 6.41542 14.0006C7.89822 13.1336 9.1336 11.8982 10.0006 10.4154Z" fill="#222527"/>
</svg>
