<svg width="24" height="24" viewBox="0 0 24 24" fill="none" xmlns="http://www.w3.org/2000/svg">
<path d="M7.96591 13.8693C7.24621 13.8693 6.58712 13.6932 5.98864 13.3409C5.39394 12.9848 4.91856 12.5095 4.5625 11.9148C4.21023 11.3163 4.03409 10.6553 4.03409 9.93182C4.03409 9.39015 4.13636 8.88258 4.34091 8.40909C4.54545 7.93182 4.82765 7.51326 5.1875 7.15341C5.54735 6.79356 5.96402 6.51136 6.4375 6.30682C6.91477 6.10227 7.42424 6 7.96591 6H8.71591V7.92045H7.96591C7.59849 7.92045 7.26136 8.01136 6.95455 8.19318C6.65152 8.375 6.40909 8.61742 6.22727 8.92045C6.04545 9.22348 5.95455 9.56061 5.95455 9.93182C5.95455 10.303 6.04356 10.642 6.22159 10.9489C6.40341 11.2519 6.64583 11.4943 6.94886 11.6761C7.25568 11.858 7.5947 11.9489 7.96591 11.9489H17.6023V13.8693H7.96591ZM14.1705 18.2159L12.8636 16.8977L16.858 12.9091L12.8636 8.90909L14.1705 7.60227L19.4773 12.9091L14.1705 18.2159Z" fill="#222527"/>
</svg>
