<svg width="24" height="24" viewBox="0 0 24 24" fill="none" xmlns="http://www.w3.org/2000/svg">
<path fill-rule="evenodd" clip-rule="evenodd" d="M17.5 16H7C5.89543 16 5 15.1046 5 14V3C5 1.89543 5.89543 1 7 1H21C22.1046 1 23 1.89543 23 3V17.527V18V20L21 18.5455L17.5 16ZM21 16.0725L18.6763 14.3825L18.1504 14H17.5H7V3H21V16.0725ZM11.5 8.5C11.5 9.32843 10.8284 10 10 10C9.17157 10 8.5 9.32843 8.5 8.5C8.5 7.67157 9.17157 7 10 7C10.8284 7 11.5 7.67157 11.5 8.5ZM14 10C14.8284 10 15.5 9.32843 15.5 8.5C15.5 7.67157 14.8284 7 14 7C13.1716 7 12.5 7.67157 12.5 8.5C12.5 9.32843 13.1716 10 14 10ZM19.5 8.5C19.5 9.32843 18.8284 10 18 10C17.1716 10 16.5 9.32843 16.5 8.5C16.5 7.67157 17.1716 7 18 7C18.8284 7 19.5 7.67157 19.5 8.5ZM1 6H3V8V18V19.263L4.3906 18.3359L4.89445 18H5.5H13H15V20H13H5.5L3 21.6667L1 23V20.5963V18V8V6Z" fill="#222527"/>
</svg>
