<svg width="24" height="24" viewBox="0 0 24 24" fill="none" xmlns="http://www.w3.org/2000/svg">
<path fill-rule="evenodd" clip-rule="evenodd" d="M1 12C1 12 4 18 12 18C20 18 23 12 23 12C23 12 20 6 12 6C4 6 1 12 1 12ZM4.80158 13.4815C5.31225 13.9192 5.92962 14.3619 6.66661 14.7514C6.2406 13.9272 6 12.9917 6 12C6 11.0083 6.2406 10.0728 6.66661 9.24864C5.92962 9.63815 5.31225 10.0808 4.80158 10.5185C4.18569 11.0464 3.71968 11.5728 3.38961 12C3.71968 12.4272 4.18569 12.9536 4.80158 13.4815ZM19.1984 13.4815C18.6877 13.9192 18.0704 14.3619 17.3334 14.7514C17.7594 13.9272 18 12.9917 18 12C18 11.0083 17.7594 10.0728 17.3334 9.24864C18.0704 9.63815 18.6877 10.0808 19.1984 10.5185C19.8143 11.0464 20.2803 11.5728 20.6104 12C20.2803 12.4272 19.8143 12.9536 19.1984 13.4815ZM16 12C16 9.79086 14.2091 8 12 8C9.79086 8 8 9.79086 8 12C8 14.2091 9.79086 16 12 16C14.2091 16 16 14.2091 16 12ZM14 12C14 13.1046 13.1046 14 12 14C10.8954 14 10 13.1046 10 12C10 10.8954 10.8954 10 12 10C13.1046 10 14 10.8954 14 12Z" fill="#222527"/>
</svg>
