<svg width="24" height="24" viewBox="0 0 24 24" fill="none" xmlns="http://www.w3.org/2000/svg">
<path fill-rule="evenodd" clip-rule="evenodd" d="M1 4C1 2.89543 1.89543 2 3 2H8.53187C9.07229 2 9.58972 2.2187 9.96631 2.60631L11.4227 4.10526L18 4.10526C19.1046 4.10526 20 5.00069 20 6.10526V7H20.5604C21.8225 7 22.7691 8.15465 22.5216 9.39223L20.3216 20.3922C20.1346 21.3271 19.3138 22 18.3604 22H4.43961H3C1.89543 22 1 21.1046 1 20V4ZM3 17L4.67845 8.60777C4.86542 7.67292 5.68625 7 6.63961 7H18V6.10526H11.4227C10.8823 6.10526 10.3648 5.88656 9.98824 5.49895L8.53187 4L3 4V17ZM6.63961 9H20.5604L18.3604 20H4.43961L6.63961 9Z" fill="#222527"/>
</svg>
