<svg width="24" height="24" viewBox="0 0 24 24" fill="none" xmlns="http://www.w3.org/2000/svg">
<path fill-rule="evenodd" clip-rule="evenodd" d="M14 3.93552V5.17496L15.11 5.72655C15.3742 5.85788 15.6293 6.00556 15.8737 6.16831L16.907 6.85647L17.9822 6.2357L18.7937 5.7672L20.7948 9.23329L19.9825 9.70226L18.9097 10.3217L18.9864 11.5581C18.9954 11.704 19 11.8513 19 12C19 12.1492 18.9954 12.2971 18.9863 12.4435L18.9093 13.6802L19.9824 14.2998L20.7941 14.7684L18.7945 18.2318L17.9834 17.7635L16.908 17.1427L15.8746 17.8311C15.6299 17.9941 15.3746 18.142 15.11 18.2735L14 18.825V20.0645V21H10V20.0645V18.825L8.8901 18.2735C8.62589 18.1421 8.37094 17.9945 8.12661 17.8318L7.09326 17.1437L6.01809 17.7645L5.20643 18.2331L3.20513 14.7667L4.01752 14.2977L5.09036 13.6783L5.01369 12.4418C5.00464 12.296 5.00004 12.1486 5.00004 12C5.00004 11.8505 5.00469 11.7024 5.01384 11.5557L5.09097 10.3188L4.01772 9.6992L3.20652 9.23086L5.20503 5.76934L6.0155 6.23727L7.09108 6.85825L8.12459 6.16953C8.36954 6.00629 8.62516 5.85821 8.8901 5.72655L10 5.17496V3.93552V3H14V3.93552ZM14 1C15.0265 1 15.8723 1.77321 15.9868 2.76894L15.9883 2.78214C15.9961 2.85369 16 2.92638 16 3V3.93552C16.3402 4.10457 16.6682 4.2945 16.9822 4.50365L17.7937 4.03515C17.8581 3.99798 17.9237 3.96479 17.9902 3.93552L18 3.93121C18.9197 3.5323 20.0125 3.87818 20.5257 4.7672L22.5269 8.23329C23.0402 9.12239 22.7933 10.2418 21.9878 10.8388L21.9753 10.8479C21.9179 10.8898 21.8577 10.929 21.7948 10.9653L20.9825 11.4343C20.9941 11.6214 21 11.81 21 12C21 12.1907 20.9941 12.38 20.9824 12.5677L21.7941 13.0363C21.8574 13.0729 21.918 13.1124 21.9757 13.1546L21.9877 13.1634C22.7927 13.7605 23.0393 14.8795 22.5261 15.7684L20.5265 19.2318C20.0131 20.1211 18.9199 20.4669 18 20.0675L17.9932 20.0645C17.9259 20.035 17.8596 20.0014 17.7945 19.9639L16.9834 19.4956C16.669 19.705 16.3406 19.8952 16 20.0645V21C16 21.0741 15.996 21.1473 15.9881 21.2194L15.987 21.2297C15.873 22.2261 15.0269 23 14 23H10C8.97371 23 8.12794 22.2269 8.01327 21.2313L8.01172 21.2175C8.004 21.1461 8.00003 21.0735 8.00003 21V20.0645C7.65995 19.8955 7.33208 19.7056 7.0181 19.4965L6.20644 19.9651C6.14225 20.0022 6.07687 20.0353 6.01057 20.0645L6.00003 20.0691C5.08037 20.468 3.98765 20.1221 3.47439 19.2331L1.47307 15.7667C0.959569 14.8773 1.20685 13.7574 2.01301 13.1606L2.02391 13.1526C2.08152 13.1105 2.14195 13.0711 2.20513 13.0346L3.01752 12.5656C3.00592 12.3786 3.00004 12.19 3.00004 12C3.00004 11.809 3.00599 11.6193 3.01772 11.4312L2.20652 10.9629C2.1426 10.926 2.08148 10.8861 2.02324 10.8435L2.01319 10.8361C1.208 10.239 0.961228 9.11982 1.47447 8.23086L3.47298 4.76934C3.98651 3.87989 5.08008 3.5341 6.00003 3.93394L6.00367 3.93552C6.07185 3.96532 6.13908 3.99921 6.20503 4.03729L7.0155 4.50522C7.33028 4.29545 7.65902 4.10499 8.00003 3.93552V3C8.00003 2.92533 8.00412 2.85162 8.01209 2.77907L8.01292 2.77168C8.12623 1.77463 8.97267 1 10 1H14ZM15 12C15 13.6569 13.6569 15 12 15C10.3432 15 9.00002 13.6569 9.00002 12C9.00002 10.3431 10.3432 9 12 9C13.6569 9 15 10.3431 15 12ZM17 12C17 14.7614 14.7614 17 12 17C9.2386 17 7.00002 14.7614 7.00002 12C7.00002 9.23858 9.2386 7 12 7C14.7614 7 17 9.23858 17 12Z" fill="#222527"/>
</svg>
