<svg width="24" height="24" viewBox="0 0 24 24" fill="none" xmlns="http://www.w3.org/2000/svg">
<path fill-rule="evenodd" clip-rule="evenodd" d="M12 5.41541L17.6551 8.5H11.9C11.3477 8.5 10.9 8.94772 10.9 9.5C10.9 10.0523 11.3477 10.5 11.9 10.5H17.6551L12 13.5846L4.51158 9.5L12 5.41541ZM13.7558 4.4577L12 3.5L10.2442 4.4577L2.75579 8.5423L1 9.5L2.75579 10.4577L5 11.6818V15.7593C5 16.0032 5.0777 16.2408 5.22184 16.4376C8.57851 21.0208 15.4215 21.0208 18.7782 16.4376C18.9223 16.2408 19 16.0032 19 15.7593V11.6818L20 11.1364V18.3377L19.5513 19.6838L19.1126 21H20.5H21.5H22.8874L22.4487 19.6838L22 18.3377V10.0455L23 9.5L21.2442 8.5423L13.7558 4.4577ZM17 12.7727L13.7558 14.5423L12 15.5L10.2442 14.5423L7 12.7727V15.4713C9.55483 18.6762 14.4452 18.6762 17 15.4713V12.7727Z" fill="#222527"/>
</svg>
