<svg width="24" height="24" viewBox="0 0 24 24" fill="none" xmlns="http://www.w3.org/2000/svg">
<path fill-rule="evenodd" clip-rule="evenodd" d="M4 10H3L3 13H4V10ZM6 14.52V15H4H3C1.89543 15 1 14.1046 1 13V10C1 8.89543 1.89543 8 3 8H4H4.09671C4.69271 4.06111 7.97402 1 12 1C16.026 1 19.3073 4.06111 19.9033 8H20H21C22.1046 8 23 8.89543 23 10V13C23 14.1046 22.1046 15 21 15H20H19.9866C19.8697 17.0771 18.994 18.8008 17.611 20.0199C16.5648 20.9423 15.2565 21.5524 13.8206 21.8291C13.5055 22.5199 12.8088 23 12 23C10.8954 23 10 22.1046 10 21C10 19.8954 10.8954 19 12 19C12.6671 19 13.2578 19.3266 13.6212 19.8286C14.666 19.5988 15.5777 19.1463 16.2885 18.5197C17.3338 17.5981 18 16.2542 18 14.52V13V10V9.29C18 5.77748 15.2758 3 12 3C8.72416 3 6 5.77748 6 9.29V10V13V14.52ZM20 13V10H21V13H20Z" fill="#222527"/>
</svg>
