<svg width="24" height="24" viewBox="0 0 24 24" fill="none" xmlns="http://www.w3.org/2000/svg">
<path fill-rule="evenodd" clip-rule="evenodd" d="M8.01534 12.4379C8.06611 12.2785 8.08725 12.1145 8.08344 11.9524C8.07755 11.8351 8.0623 11.7178 8.02885 11.6005C7.92818 11.2361 7.68956 10.9109 7.33208 10.7058L2.2474 7.78357C1.52966 7.37242 0.614549 7.6168 0.20248 8.33011C-0.213402 9.04256 0.0319682 9.95231 0.749711 10.3645L3.59105 12.0001L0.749711 13.631C0.0319682 14.044 -0.212536 14.9538 0.20248 15.6691C0.614549 16.3806 1.52966 16.6239 2.2474 16.2128L7.33208 13.2886C7.67518 13.0922 7.90808 12.784 8.01534 12.4379V12.4379Z" fill="#29B5E8"/>
<path fill-rule="evenodd" clip-rule="evenodd" d="M9.3949 15.1772C9.10274 15.1524 8.79897 15.2134 8.52588 15.3718L3.43739 18.2921C2.72156 18.7041 2.47705 19.6187 2.89016 20.3322C3.30518 21.0438 4.21942 21.2888 4.93422 20.8749L7.78509 19.2382V22.5087C7.78509 23.3327 8.45483 24.0003 9.28382 24.0003C10.1088 24.0003 10.7806 23.3327 10.7806 22.5087V16.6621C10.7806 15.8773 10.1693 15.2324 9.3949 15.1772V15.1772Z" fill="#29B5E8"/>
<path fill-rule="evenodd" clip-rule="evenodd" d="M14.6067 8.82291C14.898 8.84671 15.2009 8.7848 15.474 8.62837L20.5614 5.70528C21.2783 5.29309 21.5216 4.38231 21.1095 3.6671C20.6966 2.95465 19.7815 2.71044 19.0655 3.12246L16.2167 4.76104V1.48957C16.2167 0.667608 15.5468 0 14.7179 0C13.889 0 13.2209 0.667608 13.2209 1.48957V7.3361C13.2209 8.12012 13.8306 8.76583 14.6067 8.82291V8.82291Z" fill="#29B5E8"/>
<path fill-rule="evenodd" clip-rule="evenodd" d="M3.43739 5.70528L8.52588 8.62837C8.79897 8.7848 9.10274 8.84671 9.3949 8.82291C10.1693 8.76583 10.7806 8.12012 10.7806 7.3361V1.48957C10.7806 0.667608 10.1088 0 9.28382 0C8.45483 0 7.78509 0.667608 7.78509 1.48957V4.76104L4.93422 3.12246C4.21942 2.71044 3.30518 2.95465 2.89016 3.6671C2.47705 4.38231 2.72156 5.29309 3.43739 5.70528V5.70528Z" fill="#29B5E8"/>
<path fill-rule="evenodd" clip-rule="evenodd" d="M12.576 14.675L14.691 12.5728C14.7513 12.5137 14.8001 12.3945 14.8001 12.3107V12.1551V11.8442V11.6907C14.8001 11.6048 14.7513 11.4856 14.691 11.4256L12.576 9.32344C12.5156 9.26153 12.3969 9.21289 12.3106 9.21289H12.1572H11.8448H11.6887C11.6032 9.21289 11.4845 9.26153 11.4232 9.32344L9.30929 11.4256C9.24882 11.4856 9.19995 11.6048 9.19995 11.6907V11.8442V12.1551V12.3107C9.19995 12.3945 9.24882 12.5137 9.30929 12.5728L11.4232 14.675C11.4845 14.7369 11.6032 14.7874 11.6887 14.7874H11.8448H12.1572H12.3106C12.3988 14.7874 12.5156 14.7369 12.576 14.675ZM12.8878 11.7231C12.9481 11.786 12.9998 11.9043 12.9998 11.9892V12.013C12.9998 12.097 12.9481 12.2143 12.8878 12.2753L12.2755 12.8838C12.2151 12.9438 12.0963 12.9934 12.0108 12.9934H11.9869C11.9017 12.9934 11.7838 12.9438 11.7235 12.8838L11.1112 12.2753C11.0498 12.2143 11.0029 12.097 11.0029 12.013V11.9892C11.0029 11.9043 11.0498 11.786 11.1112 11.7231L11.7235 11.1165C11.783 11.0565 11.9017 11.0068 11.9869 11.0068H12.0108C12.0963 11.0068 12.2151 11.0565 12.2755 11.1165L12.8878 11.7231Z" fill="#29B5E8"/>
<path fill-rule="evenodd" clip-rule="evenodd" d="M20.5614 18.2921L15.474 15.3718C15.2009 15.2134 14.898 15.1524 14.6067 15.1772C13.8306 15.2324 13.2209 15.8773 13.2209 16.6621V22.5087C13.2209 23.3327 13.889 24.0003 14.7179 24.0003C15.5468 24.0003 16.2167 23.3327 16.2167 22.5087V19.2382L19.0655 20.8749C19.7813 21.2888 20.6966 21.0438 21.1095 20.3322C21.5216 19.6187 21.2783 18.7041 20.5614 18.2921V18.2921Z" fill="#29B5E8"/>
<path fill-rule="evenodd" clip-rule="evenodd" d="M23.25 10.3645L20.4087 12.0001L23.25 13.631C23.9678 14.044 24.2131 14.9538 23.7981 15.6691C23.3842 16.3806 22.4682 16.6239 21.7532 16.2128L16.6647 13.2886C16.3254 13.0922 16.0898 12.784 15.9853 12.4379C15.9355 12.2785 15.9125 12.1145 15.9182 11.9524C15.9212 11.8351 15.9383 11.7178 15.9709 11.6005C16.0726 11.2361 16.3112 10.911 16.6647 10.7058L21.7532 7.78357C22.4682 7.37242 23.3842 7.6168 23.7981 8.33011C24.2131 9.04256 23.9678 9.95231 23.25 10.3645V10.3645Z" fill="#29B5E8"/>
</svg>
