<svg width="24" height="24" viewBox="0 0 24 24" fill="none" xmlns="http://www.w3.org/2000/svg">
<path fill-rule="evenodd" clip-rule="evenodd" d="M15 9C15 12.3137 12.3137 15 9 15C5.68629 15 3 12.3137 3 9C3 5.68629 5.68629 3 9 3C12.3137 3 15 5.68629 15 9ZM14.1348 15.1348C12.7454 16.2991 10.9545 17 9 17C4.58172 17 1 13.4183 1 9C1 4.58172 4.58172 1 9 1C13.4183 1 17 4.58172 17 9C17 10.7425 16.4429 12.3548 15.4971 13.6687L22.1924 20.364C22.5829 20.7545 22.5829 21.3876 22.1924 21.7782C21.8019 22.1687 21.1687 22.1687 20.7782 21.7782L14.1348 15.1348Z" fill="#222527"/>
</svg>
