<svg width="24" height="24" viewBox="0 0 24 24" fill="none" xmlns="http://www.w3.org/2000/svg">
<path fill-rule="evenodd" clip-rule="evenodd" d="M14 5V11C14 12.1046 13.1046 13 12 13C10.8954 13 10 12.1046 10 11V5C10 3.89543 10.8954 3 12 3C13.1046 3 14 3.89543 14 5ZM8 5C8 2.79086 9.79086 1 12 1C14.2091 1 16 2.79086 16 5V11C16 13.2091 14.2091 15 12 15C9.79086 15 8 13.2091 8 11V5ZM7 11C7 13.7614 9.23858 16 12 16C14.7614 16 17 13.7614 17 11V10C17 9.44771 17.4477 9 18 9C18.5523 9 19 9.44771 19 10V11C19 14.5265 16.3923 17.4439 13 17.9291V21H16C16.5523 21 17 21.4477 17 22C17 22.5523 16.5523 23 16 23H8C7.44772 23 7 22.5523 7 22C7 21.4477 7.44772 21 8 21H11V17.9291C7.60771 17.4439 5 14.5265 5 11V10C5 9.44771 5.44772 9 6 9C6.55228 9 7 9.44771 7 10V11Z" fill="#222527"/>
</svg>
