<svg width="24" height="24" viewBox="0 0 24 24" fill="none" xmlns="http://www.w3.org/2000/svg">
<path fill-rule="evenodd" clip-rule="evenodd" d="M12 3H3V21H6V19C6 18.4477 6.44772 18 7 18H8C8.55228 18 9 18.4477 9 19V21H12V12V3ZM3 23H12H14H21H23V21V12C23 10.8954 22.1046 10 21 10H14V3C14 1.89543 13.1046 1 12 1H3C1.89543 1 1 1.89543 1 3V21V23H3ZM14 21V12H21V21H14ZM5 5H7V7H5V5ZM7 8H5V10H7V8ZM5 11H7V13H5V11ZM7 14H5V16H7V14ZM15 14H17V16H15V14ZM17 17H15V19H17V17ZM8 5H10V7H8V5ZM10 8H8V10H10V8ZM8 14H10V16H8V14ZM20 14H18V16H20V14ZM8 11H10V13H8V11ZM20 17H18V19H20V17Z" fill="#222527"/>
</svg>
