<svg width="24" height="24" viewBox="0 0 24 24" fill="none" xmlns="http://www.w3.org/2000/svg">
<path fill-rule="evenodd" clip-rule="evenodd" d="M6.5 5C7.05228 5 7.5 4.55228 7.5 4C7.5 3.44772 7.05228 3 6.5 3C5.94772 3 5.5 3.44772 5.5 4C5.5 4.55228 5.94772 5 6.5 5ZM6.5 7C8.15685 7 9.5 5.65685 9.5 4C9.5 2.34315 8.15685 1 6.5 1C4.84315 1 3.5 2.34315 3.5 4C3.5 5.65685 4.84315 7 6.5 7ZM1.5 10C1.5 8.89543 2.39543 8 3.5 8H9.5C10.6046 8 11.5 8.89543 11.5 10V19H9.5V23H7.5V17H9.5V10H3.5L3.5 17H5.5L5.5 23H3.5V19H1.5V10ZM17.5 5C18.0523 5 18.5 4.55228 18.5 4C18.5 3.44772 18.0523 3 17.5 3C16.9477 3 16.5 3.44772 16.5 4C16.5 4.55228 16.9477 5 17.5 5ZM17.5 7C19.1569 7 20.5 5.65685 20.5 4C20.5 2.34315 19.1569 1 17.5 1C15.8431 1 14.5 2.34315 14.5 4C14.5 5.65685 15.8431 7 17.5 7ZM12.5 10C12.5 8.89543 13.3954 8 14.5 8H20.5C21.6046 8 22.5 8.89543 22.5 10V19H20.5V23H18.5V17H20.5V10H14.5V17H16.5V23H14.5V19H12.5V10Z" fill="#222527"/>
</svg>
