<svg width="24" height="24" viewBox="0 0 24 24" fill="none" xmlns="http://www.w3.org/2000/svg">
<path fill-rule="evenodd" clip-rule="evenodd" d="M13 4C13 4.55228 12.5523 5 12 5C11.4477 5 11 4.55228 11 4C11 3.44772 11.4477 3 12 3C12.5523 3 13 3.44772 13 4ZM13 6.82929C14.1652 6.41746 15 5.30622 15 4C15 2.34315 13.6569 1 12 1C10.3431 1 9 2.34315 9 4C9 5.30622 9.83481 6.41746 11 6.82929V7H6C4.89543 7 4 7.89543 4 9V11H3C1.89543 11 1 11.8954 1 13V16C1 17.1046 1.89543 18 3 18H4V21C4 22.1046 4.89543 23 6 23H8H18C19.1046 23 20 22.1046 20 21V18H21C22.1046 18 23 17.1046 23 16V13C23 11.8954 22.1046 11 21 11H20V9C20 7.89543 19.1046 7 18 7H13V6.82929ZM6 9H11H13H18V11V13V16V18V21H8H6V18V16V13V11V9ZM20 16H21V13H20V16ZM4 13V16H3L3 13H4ZM8.40001 15C9.06275 15 9.60001 14.4963 9.60001 13.875C9.60001 13.2537 9.06275 12.75 8.40001 12.75C7.73727 12.75 7.20001 13.2537 7.20001 13.875C7.20001 14.4963 7.73727 15 8.40001 15ZM16.8 13.875C16.8 14.4963 16.2627 15 15.6 15C14.9373 15 14.4 14.4963 14.4 13.875C14.4 13.2537 14.9373 12.75 15.6 12.75C16.2627 12.75 16.8 13.2537 16.8 13.875ZM10.8022 16.2155C10.4725 15.7724 9.84605 15.6805 9.40299 16.0103C8.95993 16.34 8.86805 16.9664 9.19777 17.4095C10.5945 19.2864 13.4055 19.2864 14.8022 17.4095C15.132 16.9664 15.0401 16.34 14.597 16.0103C14.1539 15.6805 13.5275 15.7724 13.1978 16.2155C12.6008 17.0177 11.3992 17.0177 10.8022 16.2155Z" fill="#222527"/>
</svg>
